<svg xmlns="http://www.w3.org/2000/svg" width="400" height="300" viewBox="0 0 400 300">
  <rect width="400" height="300" fill="#F8FAFC" />
  
  <!-- Background - Wall with shelves -->
  <rect x="0" y="0" width="400" height="300" fill="#F1F5F9" />
  
  <!-- Bookshelf 1 -->
  <rect x="50" y="30" width="300" height="20" fill="#94A3B8" />
  <rect x="50" y="50" width="300" height="60" fill="#E2E8F0" />
  <rect x="55" y="55" width="40" height="50" fill="#334155" />
  <rect x="100" y="55" width="40" height="50" fill="#1E40AF" />
  <rect x="145" y="55" width="40" height="50" fill="#6D28D9" />
  <rect x="190" y="55" width="40" height="50" fill="#BE185D" />
  <rect x="235" y="55" width="40" height="50" fill="#B45309" />
  <rect x="280" y="55" width="40" height="50" fill="#166534" />
  
  <!-- Bookshelf 2 -->
  <rect x="50" y="120" width="300" height="20" fill="#94A3B8" />
  <rect x="50" y="140" width="300" height="60" fill="#E2E8F0" />
  <rect x="55" y="145" width="40" height="50" fill="#7E22CE" />
  <rect x="100" y="145" width="40" height="50" fill="#BE123C" />
  <rect x="145" y="145" width="40" height="50" fill="#0E7490" />
  <rect x="190" y="145" width="40" height="50" fill="#3F6212" />
  <rect x="235" y="145" width="40" height="50" fill="#9F1239" />
  <rect x="280" y="145" width="40" height="50" fill="#422006" />
  
  <!-- Floor -->
  <rect x="0" y="250" width="400" height="50" fill="#94A3B8" />
  
  <!-- Library desk -->
  <rect x="100" y="210" width="200" height="40" fill="#64748B" />
  <rect x="105" y="215" width="190" height="30" fill="#475569" />
  <rect x="150" y="200" width="100" height="10" fill="#475569" />
  
  <!-- Library lamp -->
  <rect x="190" y="180" width="20" height="20" fill="#FBBF24" />
  <ellipse cx="200" cy="180" rx="15" ry="5" fill="#FBBF24" />
  <rect x="195" y="150" width="10" height="30" fill="#64748B" />
  
  <text x="200" y="280" font-family="Arial" font-size="12" fill="#1E293B" text-anchor="middle">Library Interior</text>
</svg>
