<svg xmlns="http://www.w3.org/2000/svg" width="400" height="300" viewBox="0 0 400 300">
  <rect width="400" height="300" fill="#F8FAFC" />
  
  <!-- Floor -->
  <rect x="0" y="250" width="400" height="50" fill="#94A3B8" />
  
  <!-- Wall and Windows -->
  <rect x="0" y="0" width="400" height="250" fill="#E2E8F0" />
  <rect x="50" y="40" width="80" height="120" fill="#BFDBFE" />
  <rect x="160" y="40" width="80" height="120" fill="#BFDBFE" />
  <rect x="270" y="40" width="80" height="120" fill="#BFDBFE" />
  
  <!-- Window frames -->
  <rect x="50" y="40" width="80" height="5" fill="#64748B" />
  <rect x="50" y="155" width="80" height="5" fill="#64748B" />
  <rect x="50" y="40" width="5" height="120" fill="#64748B" />
  <rect x="125" y="40" width="5" height="120" fill="#64748B" />
  <rect x="90" y="40" width="5" height="120" fill="#64748B" />
  
  <rect x="160" y="40" width="80" height="5" fill="#64748B" />
  <rect x="160" y="155" width="80" height="5" fill="#64748B" />
  <rect x="160" y="40" width="5" height="120" fill="#64748B" />
  <rect x="235" y="40" width="5" height="120" fill="#64748B" />
  <rect x="200" y="40" width="5" height="120" fill="#64748B" />
  
  <rect x="270" y="40" width="80" height="5" fill="#64748B" />
  <rect x="270" y="155" width="80" height="5" fill="#64748B" />
  <rect x="270" y="40" width="5" height="120" fill="#64748B" />
  <rect x="345" y="40" width="5" height="120" fill="#64748B" />
  <rect x="310" y="40" width="5" height="120" fill="#64748B" />
  
  <!-- Reading tables -->
  <rect x="60" y="180" width="80" height="5" fill="#475569" />
  <rect x="62" y="185" width="3" height="40" fill="#475569" />
  <rect x="135" y="185" width="3" height="40" fill="#475569" />
  <rect x="62" y="225" width="76" height="3" fill="#475569" />
  
  <rect x="170" y="180" width="80" height="5" fill="#475569" />
  <rect x="172" y="185" width="3" height="40" fill="#475569" />
  <rect x="245" y="185" width="3" height="40" fill="#475569" />
  <rect x="172" y="225" width="76" height="3" fill="#475569" />
  
  <rect x="280" y="180" width="80" height="5" fill="#475569" />
  <rect x="282" y="185" width="3" height="40" fill="#475569" />
  <rect x="355" y="185" width="3" height="40" fill="#475569" />
  <rect x="282" y="225" width="76" height="3" fill="#475569" />
  
  <!-- Chairs -->
  <rect x="75" y="230" width="20" height="5" fill="#64748B" />
  <rect x="80" y="235" width="10" height="15" fill="#64748B" />
  <rect x="125" y="230" width="20" height="5" fill="#64748B" />
  <rect x="130" y="235" width="10" height="15" fill="#64748B" />
  
  <rect x="185" y="230" width="20" height="5" fill="#64748B" />
  <rect x="190" y="235" width="10" height="15" fill="#64748B" />
  <rect x="235" y="230" width="20" height="5" fill="#64748B" />
  <rect x="240" y="235" width="10" height="15" fill="#64748B" />
  
  <rect x="295" y="230" width="20" height="5" fill="#64748B" />
  <rect x="300" y="235" width="10" height="15" fill="#64748B" />
  <rect x="345" y="230" width="20" height="5" fill="#64748B" />
  <rect x="350" y="235" width="10" height="15" fill="#64748B" />
  
  <text x="200" y="280" font-family="Arial" font-size="12" fill="#1E293B" text-anchor="middle">Library Reading Area</text>
</svg>
